<?xml version="1.0" encoding="utf-8"?>
<!-- Generator: Adobe Illustrator 22.0.0, SVG Export Plug-In . SVG Version: 6.00 Build 0)  -->
<svg version="1.1" id="图层_1" xmlns="http://www.w3.org/2000/svg" xmlns:xlink="http://www.w3.org/1999/xlink" x="0px" y="0px"
	 viewBox="0 0 383.3 59.8" style="enable-background:new 0 0 383.3 59.8;" xml:space="preserve">
<style type="text/css">
	.st0{fill:#FFFFFF;}
</style>
<title>资源 1</title>
<g id="图层_2_1_">
	<g id="图层_1-2">
		<path class="st0" d="M51,23.5l7.7-13.4c0.4-0.7,0.1-1.5-0.5-1.9C58,8.1,57.7,8,57.5,8H42c-0.8,0-1.4,0.6-1.4,1.4
			c0,0.2,0.1,0.5,0.2,0.7l7.7,13.4c0.4,0.7,1.2,0.9,1.9,0.6C50.7,23.9,50.9,23.7,51,23.5z"/>
		<path class="st0" d="M47.4,56.6l-27.7-48C19.4,8.2,19,8,18.5,8H1.4C0.6,8,0,8.6,0,9.4c0,0.2,0.1,0.5,0.2,0.7l27.7,48
			c0.2,0.4,0.7,0.7,1.2,0.7h17.1c0.8,0,1.4-0.6,1.4-1.4C47.6,57.2,47.5,56.9,47.4,56.6z"/>
		<path class="st0" d="M90.3,46.5c-7.2-0.8-12.4-7.4-11.6-14.6c0.8-6.6,6.4-11.6,13-11.7c2.7,0,5.3,0.8,7.5,2.4
			c0.6,0.4,1.5,0.3,1.9-0.4c0.2-0.2,0.2-0.5,0.2-0.8V9.8c0-0.6-0.4-1.1-0.9-1.3c-3.8-1.3-7.8-1.8-11.8-1.4c-3.4,0.4-6.7,1.4-9.7,3.1
			c-0.2,0.1-0.4,0.3-0.5,0.5l-13,22.4c-0.1,0.2-0.2,0.5-0.2,0.8c0.3,14.6,12.4,26.1,27,25.8c2.8-0.1,5.6-0.6,8.2-1.5
			c0.5-0.2,0.9-0.7,0.9-1.3V45.3c0-0.8-0.6-1.4-1.4-1.4c-0.3,0-0.5,0.1-0.8,0.2C96.7,46,93.5,46.8,90.3,46.5z"/>
		<path class="st0" d="M126.5,51.3c2.4-1.7,4.5-3.8,6.2-6.1c1.4-1.9,2.7-3.9,3.8-6.1c0.8-1.5,1.4-3,1.9-4.6c0.3-1.2,0.5-1.8,0.5-1.9
			l4.6,0.9c-0.1,0.4-0.2,0.8-0.3,1.2c-0.2,0.7-0.5,1.6-0.9,2.7s-1,2.4-1.6,3.8c-0.8,1.6-1.6,3.1-2.6,4.5c-1.1,1.7-2.4,3.3-3.7,4.8
			c-1.5,1.7-3.2,3.2-5.1,4.6L126.5,51.3z M153.1,31.9V56h-4.8V31.9h-21.5v-4.8h21.5v-8.6h-18.8v-4.7h18.8V8.5h4.8v5.3h18.8v4.7
			h-18.8v8.6h21.5v4.8H153.1z M162.3,32.6c0,0,0.2,0.7,0.5,1.9c0.5,1.6,1.1,3.2,1.9,4.6c1.1,2.1,2.4,4.1,3.8,6
			c1.8,2.3,3.8,4.4,6.2,6.1l-2.8,3.8c-2.7-2-5.1-4.3-7.1-7c-1.6-2.2-3.1-4.5-4.3-6.9c-0.9-1.7-1.6-3.5-2.2-5.3
			c-0.4-1.5-0.6-2.2-0.6-2.4L162.3,32.6z"/>
		<path class="st0" d="M188.1,52.6c0.4-1.9,0.8-3.8,1.1-5.8s0.7-4,1-5.9c0.3-1.9,0.6-3.8,0.8-5.5c0.2-1.7,0.4-3.3,0.6-4.6
			c0.1-1.3,0.3-2.4,0.3-3.1s0.1-1.2,0.1-1.2l4.7,0.4c0,0.2-0.1,1.1-0.3,2.9s-0.5,3.9-0.8,6.5s-0.8,5.5-1.3,8.5s-1.1,6.1-1.7,9
			L188.1,52.6z M204.8,40.5l-2.9-5v20.9h-4.7V25.6h-8.2v-4.7h8.2v-6h-7.8v-4.8h13.2c0.4,0,0.9,0,1.3-0.1c0.4-0.1,0.8-0.2,1.1-0.4
			c0.4-0.2,0.8-0.4,1.2-0.6l2.5,4c-0.1,0-0.3,0.2-0.6,0.4c-0.4,0.2-0.9,0.4-1.4,0.6c-0.6,0.2-1.2,0.4-1.9,0.6
			c-0.7,0.2-1.5,0.3-2.2,0.3H202v6h6v4.7h-6V26l6.9,12.1L204.8,40.5z M236.8,43.6h-6.9v12.8h-4.7V43.6h-16.3v-4.7h16.3V8.7h4.7v30.1
			h6.9V43.6z M220.8,22.1L210,17l2-4.3l10.8,5.1L220.8,22.1z M220.8,33.9L210,28.8l2-4.3l10.8,5.1L220.8,33.9z"/>
		<path class="st0" d="M248.9,39.1c0-0.6,0.2-1.2,0.6-1.6c0.9-1,1.8-2,2.6-3.2c0.9-1.2,1.7-2.5,2.6-3.9l-4.4-1.5
			c-1-0.3-1.6-1.2-1.6-2.2v-0.9c0-0.6,0.2-1.1,0.6-1.5c0.9-1.1,1.7-2.2,2.3-3.4c0.8-1.5,1.6-3,2.4-4.5c0.8-1.6,1.4-3.1,2.1-4.5
			c0.6-1.4,1.1-2.6,1.4-3.4l4.3,1.7c0,0.1-0.3,0.7-0.7,1.8s-1,2.4-1.7,3.9s-1.5,3.2-2.3,4.9c-0.8,1.6-1.7,3.1-2.7,4.6l2.8,1
			c0.6-1.1,1.1-2.1,1.6-3s0.9-1.8,1.3-2.5s0.7-1.3,0.9-1.8c0.1-0.2,0.2-0.5,0.3-0.7l4.3,2c0,0.1-0.4,0.8-0.9,1.9
			c-0.6,1.1-1.3,2.6-2.2,4.3c-0.9,1.7-1.9,3.5-3.1,5.4s-2.3,3.7-3.5,5.4h1c0.7,0,1.3-0.1,2-0.2c0.6-0.1,1.2-0.3,1.7-0.5
			s1.2-0.4,1.8-0.7l2,4.3c-0.3,0.1-0.5,0.2-0.7,0.3c-0.6,0.2-1.1,0.5-1.7,0.6c-0.7,0.2-1.5,0.4-2.4,0.6c-0.9,0.2-1.8,0.3-2.7,0.3
			h-5.5c-0.6,0-1.2-0.2-1.7-0.7c-0.4-0.4-0.7-1-0.7-1.7L248.9,39.1z M296.1,24c0,1.3-1,2.3-2.3,2.4c0,0,0,0-0.1,0h-23.4v14.2
			c0,1.9-0.1,3.7-0.5,5.6c-0.3,1.8-0.7,3.4-1,4.9s-0.8,2.6-1.1,3.5s-0.5,1.4-0.6,1.5l-4.3-1.8c0,0,0.1-0.5,0.5-1.3s0.6-1.9,1-3.3
			c-1.2,0.6-2.4,1.1-3.7,1.4c-1.2,0.3-2.4,0.6-3.6,0.7c-1.2,0.2-2.4,0.3-3.7,0.3c-1.2,0-2.5,0-3.9,0l0.4-4.7c2.3,0,4.6-0.1,6.7-0.3
			c2.2-0.2,4.4-0.9,6.4-2l1.7,3.3c0.3-1.2,0.5-2.5,0.7-3.8c0.2-1.3,0.3-2.7,0.3-4V14.7c0-1.3,1-2.3,2.3-2.4c0,0,0,0,0.1,0h10.8
			L278,9.6l4.5-1.5l1.5,4.3h9.9c1.3,0,2.3,1,2.4,2.3c0,0,0,0,0,0.1L296.1,24z M291.4,17h-21v4.6h21V17z M294.2,29.6
			c1.2,0,2.2,1,2.2,2.2c0,0,0,0,0,0v17.5c0,1.1-0.1,2.3-0.5,3.4c-0.3,0.9-0.6,1.7-1.1,2.4c-0.3,0.5-0.7,1.1-1.1,1.5l-0.6,0.6
			l-2.9-3.5c0.3-0.3,0.6-0.7,0.9-1.1c0.2-0.4,0.4-0.9,0.6-1.4c0.2-0.6,0.3-1.3,0.2-2v-4.8h-2.5V55H285V44.5h-2.3V55h-4.5V44.5h-2.4
			v11.6h-4.5V31.9c0-1.2,1-2.2,2.2-2.2c0,0,0,0,0,0L294.2,29.6z M278.2,40.1v-6h-2.4v6H278.2z M284.9,40.1v-6h-2.3v6H284.9z
			 M291.9,40.1v-6h-2.5v6H291.9z"/>
		<path class="st0" d="M310.2,53.1c0.4-1.9,0.8-3.8,1.1-5.8c0.3-2,0.7-4,1-5.9c0.3-1.9,0.5-3.8,0.8-5.5s0.4-3.3,0.6-4.6
			c0.1-1.3,0.3-2.8,0.5-4.4l4.7,0.4c0,0.1,0,0.5-0.1,1.4s-0.2,1.9-0.4,3.3c-0.2,1.3-0.4,2.9-0.6,4.6s-0.5,3.6-0.8,5.6s-0.6,4-1,6
			s-0.7,4-1.1,5.9L310.2,53.1z M326.5,40.9l-2.6-4.8v20.6h-4.7V26h-7.9v-4.7h7.9v-6.1h-7.5v-4.7h11.2c0.6,0,1.3-0.1,1.9-0.2
			c0.6-0.1,1.2-0.3,1.8-0.4c0.5-0.2,1.1-0.4,1.8-0.7l1.9,4.3c-0.2,0.1-0.4,0.1-0.6,0.2c-0.4,0.1-0.8,0.3-1.4,0.5s-1.3,0.4-2,0.5
			c-0.8,0.2-1.6,0.3-2.4,0.4v6.1h5.9V26h-5.9v0.4l6.8,12.1L326.5,40.9z M360.5,50.6v4.7h-32.6v-4.7h13.9v-6.1h-10.4v-4.7h10.4v-6
			h-11.7v-4.8h28.1v4.8h-11.7v6h10.4v4.7h-10.4v6.1H360.5z M333.8,26c-1.3,0-2.3-1-2.4-2.3c0,0,0,0,0-0.1V12.9c0-1.3,1-2.3,2.3-2.4
			c0,0,0,0,0.1,0h20.7c1.3,0,2.3,1,2.4,2.3c0,0,0,0,0,0.1v10.8c0,1.3-1,2.3-2.3,2.4c0,0,0,0-0.1,0L333.8,26z M336.2,21.3h16v-6.1
			h-16V21.3z"/>
		<path class="st0" d="M374.2,1.1h-1.9V7H371V1.1h-1.9V0h5.1L374.2,1.1z"/>
		<path class="st0" d="M376.2,0h2.1l1.4,4.1h0.1l1.4-4.1h2.1v7H382V1.3h-0.1l-1.5,4.3h-1.3l-1.5-4.3h-0.1V7h-1.3L376.2,0z"/>
	</g>
</g>
</svg>
