<svg xmlns="http://www.w3.org/2000/svg" width="504.3" height="151.16" viewBox="0 0 504.3 151.16"><defs><style>.cls-1{fill:#fff;}.cls-2{fill:#ffc100;}.cls-3{fill:#39424d;}</style></defs><title>资源 2</title><g id="图层_2" data-name="图层 2"><g id="图层_1-2" data-name="图层 1"><rect width="151.16" height="151.16" rx="26.1" ry="26.1"/><path class="cls-1" d="M72.8,64.09l9-15.54a1.62,1.62,0,0,0-1.41-2.43H62.42A1.62,1.62,0,0,0,61,48.55l9,15.54A1.62,1.62,0,0,0,72.8,64.09Z"/><path class="cls-2" d="M68.65,102.6,36.51,46.93a1.63,1.63,0,0,0-1.41-.81H15.28a1.62,1.62,0,0,0-1.41,2.43L46,104.23a1.63,1.63,0,0,0,1.41.81H67.24A1.63,1.63,0,0,0,68.65,102.6Z"/><path class="cls-1" d="M118.49,90.8a15.32,15.32,0,0,1,1.71-30.54A15.2,15.2,0,0,1,129,63a1.62,1.62,0,0,0,2.53-1.34V48.23a1.6,1.6,0,0,0-1.06-1.53,30.45,30.45,0,0,0-25,2,1.73,1.73,0,0,0-.63.63l-15,26a1.67,1.67,0,0,0-.23.87,30.63,30.63,0,0,0,40.86,28.19,1.61,1.61,0,0,0,1.06-1.53V89.49A1.62,1.62,0,0,0,129,88.12,15.19,15.19,0,0,1,118.49,90.8Z"/><path d="M180.84,85a36.83,36.83,0,0,0,7.87-7.72,53.42,53.42,0,0,0,4.79-7.63,33.2,33.2,0,0,0,2.38-5.81c.41-1.53.62-2.32.62-2.37l5.85,1.09c0,.1-.12.59-.35,1.48s-.61,2-1.13,3.43-1.21,3-2.07,4.83A44.2,44.2,0,0,1,195.53,78a53.91,53.91,0,0,1-4.72,6,42.72,42.72,0,0,1-6.38,5.77ZM214.42,60.5V91h-6V60.5h-27v-6h27V43.67H184.74V37.75h23.68V31.13h6v6.62h23.69v5.92H214.42V54.5h27v6Zm11.61.94c0,.05.22.85.67,2.41a34.89,34.89,0,0,0,2.41,5.85,53,53,0,0,0,4.79,7.59A38.46,38.46,0,0,0,241.7,85l-3.51,4.75a43.36,43.36,0,0,1-9-8.8,59.19,59.19,0,0,1-5.45-8.65A36.79,36.79,0,0,1,221,65.53c-.5-1.85-.74-2.85-.74-3Z"/><path d="M258.53,86.68q.77-3.51,1.44-7.32t1.2-7.48c.37-2.44.71-4.76,1-6.94s.55-4.1.74-5.76.32-3,.43-4,.15-1.5.15-1.56l5.92.55c0,.21-.11,1.4-.35,3.58s-.57,4.91-1,8.18-1,6.86-1.6,10.76-1.35,7.66-2.18,11.3Zm21-15.35L276,65V91.36h-5.92V52.63H259.69V46.71h10.37V39.15h-9.82v-6h16.6a6.23,6.23,0,0,0,1.67-.23c.55-.16,1-.31,1.44-.47a12.62,12.62,0,0,0,1.48-.7l3.12,5.06-.82.47a10.84,10.84,0,0,1-1.71.78c-.7.26-1.5.51-2.38.74a11.07,11.07,0,0,1-2.8.35H276v7.56h7.56v5.92H276v.47l8.73,15.27Zm40.21,3.9H311V91.36h-5.92V75.23H284.63V69.31h20.49V31.36H311v38h8.73Zm-20.1-27L286,41.72l2.57-5.37,13.64,6.46Zm0,14.88L286,56.61l2.57-5.38,13.64,6.47Z"/><path d="M335,69.62a3.1,3.1,0,0,1,.78-2,36,36,0,0,0,3.23-4q1.68-2.34,3.24-4.91l-5.54-2a2.81,2.81,0,0,1-1.94-2.8v-1.1a2.79,2.79,0,0,1,.7-1.94,23.35,23.35,0,0,0,2.92-4.33q1.51-2.76,3-5.72c1-2,1.83-3.87,2.61-5.69s1.38-3.25,1.79-4.29l5.46,2.18c-.06.16-.35.91-.9,2.26s-1.26,3-2.14,5-1.87,4-3,6.16a56.74,56.74,0,0,1-3.35,5.8l3.5,1.25c.73-1.35,1.41-2.62,2-3.82s1.17-2.26,1.64-3.19.84-1.68,1.13-2.22a6.34,6.34,0,0,0,.42-.9L356,45.93c-.05.16-.44,1-1.17,2.42s-1.66,3.24-2.8,5.37-2.45,4.4-3.9,6.82-2.94,4.69-4.44,6.82h1.25a10.65,10.65,0,0,0,2.45-.28,20.77,20.77,0,0,0,2.14-.58c.78-.26,1.53-.55,2.26-.86L354.36,71a7.14,7.14,0,0,0-.93.39,17,17,0,0,1-2.18.78c-.89.26-1.87.5-3,.74a16.21,16.21,0,0,1-3.35.35H338a2.94,2.94,0,0,1-3-3Zm59.53-19a2.94,2.94,0,0,1-3,3H362.16V71.41a41.53,41.53,0,0,1-.59,7q-.58,3.43-1.32,6.12c-.5,1.79-.95,3.26-1.37,4.4s-.65,1.77-.7,1.87l-5.45-2.26s.19-.6.58-1.64.82-2.41,1.29-4.12a28.77,28.77,0,0,1-4.68,1.79,35.78,35.78,0,0,1-4.56.93,37.52,37.52,0,0,1-4.63.35c-1.56,0-3.2,0-4.91,0l.54-5.92c3,0,5.77-.13,8.42-.39a21.43,21.43,0,0,0,8-2.57L355,81.23c.36-1.51.66-3.09.89-4.76a35.35,35.35,0,0,0,.35-5.06V38.84a2.94,2.94,0,0,1,3-3h13.64l-1.17-3.43,5.61-2,1.87,5.38h12.47a2.94,2.94,0,0,1,3,3Zm-6-8.81H362.16v5.84h26.41Zm3.51,15.9a2.78,2.78,0,0,1,2.8,2.8v22a13.35,13.35,0,0,1-.62,4.25,15.08,15.08,0,0,1-1.41,3.08,11.46,11.46,0,0,1-1.44,1.91l-.74.74-3.58-4.37a7.39,7.39,0,0,0,1.13-1.4,7.8,7.8,0,0,0,.74-1.75,8.61,8.61,0,0,0,.31-2.46v-6h-3.19V89.64h-5.61V76.47h-2.89V89.64H372V76.47h-3V91.12H363.4V60.5a2.7,2.7,0,0,1,.82-2,2.73,2.73,0,0,1,2-.81ZM372,70.86V63.31h-3v7.55Zm8.5,0V63.31h-2.89v7.55Zm8.8,0V63.31h-3.19v7.55Z"/><path d="M412.33,87.23q.78-3.51,1.45-7.33c.44-2.54.84-5,1.2-7.48s.69-4.75,1-6.93.52-4.11.7-5.77.37-3.5.58-5.53l5.92.54c0,.11-.05.69-.15,1.76s-.26,2.44-.47,4.13-.45,3.63-.74,5.84-.61,4.55-1,7-.77,5-1.21,7.56-.92,5-1.44,7.44Zm20.42-15.35-3.27-6V91.82h-5.93V53.18h-10V47.25h10V39.62h-9.42V33.7h14.1a12.7,12.7,0,0,0,2.41-.24,17.4,17.4,0,0,0,2.23-.54c.64-.21,1.41-.49,2.29-.86l2.34,5.46a4.88,4.88,0,0,0-.74.27c-.44.18-1,.39-1.79.62s-1.6.46-2.53.66a24.41,24.41,0,0,1-3,.47v7.71h7.4v5.93h-7.4v.54L438,69Zm42.78,12.23V90h-41V84.11h17.53V76.47H439V70.55h13.09V63H437.35V57H472.8v6H458v7.56h13.09v5.92H458v7.64ZM442,53.18a2.86,2.86,0,0,1-2.1-.86,2.82,2.82,0,0,1-.86-2.1V36.66a2.92,2.92,0,0,1,3-3h26a2.85,2.85,0,0,1,2.1.85,2.9,2.9,0,0,1,.86,2.11V50.22a2.94,2.94,0,0,1-3,3Zm3-5.93h20.1V39.62H445Z"/><path class="cls-3" d="M492.93,21.82h-2.39v7.33h-1.65V21.82h-2.38V20.37h6.42Z"/><path class="cls-3" d="M495.45,20.37h2.68l1.72,5.18h.08l1.77-5.18h2.6v8.78h-1.63V22h-.07l-1.89,5.39H499L497.14,22h-.07v7.16h-1.62Z"/><path d="M202.06,112.53a1.17,1.17,0,0,1,.82.32,1.07,1.07,0,0,1,.34.81v11.11h-2.29v-.72h-6.48v7.79h-2.3v-7.79h-6.48v.72H183.4V113.66a1.1,1.1,0,0,1,.33-.81,1.13,1.13,0,0,1,.81-.32h7.61v-3.94h2.3v3.94Zm-9.91,9.25v-7h-6.48v7Zm8.78,0v-7h-6.48v7Z"/><path d="M222.6,126.83l-2-1a22.78,22.78,0,0,0,1-2.24c.31-.81.61-1.64.9-2.48s.55-1.65.79-2.44.45-1.51.62-2.12.37-1.32.57-2.09l2.21.56a5.92,5.92,0,0,1-.16.69c-.11.42-.26,1-.44,1.58s-.39,1.37-.64,2.18-.52,1.66-.82,2.51-.61,1.71-.94,2.55A24.31,24.31,0,0,1,222.6,126.83Zm4.87,4.74V129.3l.56,0a5.62,5.62,0,0,0,1.18-.24,3.61,3.61,0,0,0,1.17-.6,1.32,1.32,0,0,0,.52-1.12V108.91h2.3V127.3a3.47,3.47,0,0,1-.61,2.09,4.44,4.44,0,0,1-1.51,1.32,6.71,6.71,0,0,1-1.88.67A9.09,9.09,0,0,1,227.47,131.57Zm13.64-4.74c-.34-.7-.67-1.47-1-2.32s-.64-1.69-.94-2.55-.57-1.69-.82-2.51-.46-1.54-.64-2.18-.33-1.16-.44-1.58-.17-.64-.19-.69l2.21-.56s.05.22.16.59.25.88.42,1.5.38,1.32.63,2.12.52,1.61.8,2.44.6,1.67.92,2.5.63,1.57.95,2.22Z"/><path d="M281.89,124.92h-9.73v2.92a2.72,2.72,0,0,1-.61,1.81,4.78,4.78,0,0,1-1.49,1.18,7.48,7.48,0,0,1-1.9.65,11.13,11.13,0,0,1-1.82.24l-.09-2.27a10.43,10.43,0,0,0,1.1-.13,6.6,6.6,0,0,0,1.2-.31,3.84,3.84,0,0,0,.95-.5.82.82,0,0,0,.39-.67v-2.92H258.7v-2.27h11.19V122a1,1,0,0,1,.57-1l4-2.33H261.89v-2.27h15.94a1.1,1.1,0,0,1,.81.33,1.08,1.08,0,0,1,.33.8v.51a1,1,0,0,1-.57,1l-6.18,3.61h9.67ZM262,116.41h-2.27v-3.32a1.13,1.13,0,0,1,1.14-1.13h2.32l-1.34-2.54,2-1.07,1.64,3.1-.95.51h5.31l-1.34-2.54,2-1.07,1.64,3.1-1,.51h3.44a8.69,8.69,0,0,0,.76-1c.25-.35.48-.71.69-1.06s.39-.67.56-1,.3-.55.38-.73l2.06,1a1.67,1.67,0,0,1-.14.27l-.34.63c-.14.26-.3.55-.49.86s-.4.65-.62,1h2.72a1.13,1.13,0,0,1,1.14,1.13v3.32H279v-2.18H262Z"/><path d="M320.17,128.86v2.27h-23v-2.27H308v-6.51h-8v-2.3h8v-6h-6.39c-.44.72-.93,1.45-1.48,2.21s-1.15,1.5-1.81,2.24L296.61,117a22.12,22.12,0,0,0,2.21-2.83c.64-1,1.17-1.87,1.6-2.67s.87-1.74,1.33-2.8l2.12.81s-.12.27-.29.69-.42,1-.76,1.61H308v-3h2.27v3h8.89v2.27h-8.89v6h8.21v2.3h-8.21v6.51Z"/><path d="M334.77,123.33a1.19,1.19,0,0,1,.3-.77A15.21,15.21,0,0,0,336.3,121c.43-.6.85-1.23,1.24-1.89l-2.12-.74a1.09,1.09,0,0,1-.74-1.08v-.41a1.08,1.08,0,0,1,.27-.75,9.45,9.45,0,0,0,1.12-1.66c.38-.7.76-1.44,1.13-2.19s.7-1.48,1-2.18.53-1.25.69-1.64l2.09.83c0,.06-.14.35-.35.87s-.48,1.15-.82,1.89-.71,1.54-1.13,2.36a21.58,21.58,0,0,1-1.29,2.23l1.35.47c.28-.51.54-1,.77-1.46s.45-.86.63-1.22l.43-.85a2.61,2.61,0,0,0,.17-.35l2.06,1c0,.06-.17.37-.45.92s-.64,1.25-1.07,2.06-.94,1.69-1.5,2.62-1.12,1.79-1.7,2.61h.48a4.24,4.24,0,0,0,.94-.11c.31-.07.58-.14.82-.22s.59-.21.87-.33l1,2.06-.36.15a6.9,6.9,0,0,1-.83.3c-.34.1-.72.19-1.14.28a6,6,0,0,1-1.28.14H335.9a1.06,1.06,0,0,1-.8-.33,1.1,1.1,0,0,1-.33-.81Zm22.81-7.28a1.1,1.1,0,0,1-.33.81,1.13,1.13,0,0,1-.81.32H345.16V124a15.92,15.92,0,0,1-.23,2.69c-.15.87-.32,1.65-.5,2.34s-.37,1.25-.53,1.69-.25.67-.27.71l-2.09-.86s.08-.23.23-.63.31-.92.49-1.58a10.56,10.56,0,0,1-1.79.69,13.22,13.22,0,0,1-1.75.35,14.9,14.9,0,0,1-1.77.14h-1.88l.2-2.27c1.14,0,2.21,0,3.23-.14a8.1,8.1,0,0,0,3.07-1l.84,1.61a18.43,18.43,0,0,0,.34-1.82,13.84,13.84,0,0,0,.14-1.94V111.54a1.13,1.13,0,0,1,1.13-1.13h5.23l-.45-1.32,2.15-.74.72,2.06h4.77a1.1,1.1,0,0,1,.81.33,1.06,1.06,0,0,1,.33.8Zm-2.3-3.37H345.16v2.24h10.12Zm1.34,6.09a1.08,1.08,0,0,1,1.08,1.07v8.42a5,5,0,0,1-.24,1.63,5.93,5.93,0,0,1-.54,1.18,4.58,4.58,0,0,1-.55.73l-.29.28-1.37-1.67a2.9,2.9,0,0,0,.43-.54,2.8,2.8,0,0,0,.29-.67,3.3,3.3,0,0,0,.12-.94V126h-1.23v5h-2.15v-5h-1.1v5h-2.15v-5h-1.14v5.61h-2.15V119.84a1.08,1.08,0,0,1,1.08-1.07Zm-7.7,5v-2.89h-1.14v2.89Zm3.25,0v-2.89h-1.1v2.89Zm3.38,0v-2.89h-1.23v2.89Z"/><path d="M372.89,130.08c.2-.89.39-1.83.55-2.81s.33-1.93.47-2.86.26-1.82.37-2.66.2-1.57.27-2.21.14-1.34.22-2.12l2.27.21s0,.27-.06.67-.1.94-.18,1.59-.17,1.39-.28,2.24-.23,1.74-.37,2.68-.3,1.91-.47,2.9-.35,1.93-.55,2.85Zm7.82-5.88-1.25-2.3v9.94h-2.27V117h-3.82v-2.26h3.82v-2.93h-3.61v-2.27H379a5,5,0,0,0,.93-.09,7,7,0,0,0,.85-.21c.25-.08.54-.19.88-.33l.9,2.09-.29.11-.68.24c-.29.09-.62.17-1,.25a9.71,9.71,0,0,1-1.14.18v3h2.84V117h-2.84v.21l3.26,5.85Zm16.39,4.69v2.27H381.4v-2.27h6.72V126h-5v-2.27h5V120.8h-5.64v-2.3h13.58v2.3h-5.67v2.89h5V126h-5v2.93ZM384.27,117a1.11,1.11,0,0,1-1.14-1.13v-5.19a1.13,1.13,0,0,1,1.14-1.14h10a1.1,1.1,0,0,1,.81.33,1.13,1.13,0,0,1,.32.81v5.19a1.13,1.13,0,0,1-.32.81,1.09,1.09,0,0,1-.81.32Zm1.13-2.26h7.7v-2.93h-7.7Z"/><path d="M432.57,109.48a1.13,1.13,0,0,1,1.14,1.14v17.22a3,3,0,0,1-.48,1.7,5,5,0,0,1-1.19,1.24,6.29,6.29,0,0,1-1.53.82,8.49,8.49,0,0,1-1.46.42l-.42-2.24a4.33,4.33,0,0,0,.67-.18,5.41,5.41,0,0,0,.94-.4,4,4,0,0,0,.84-.58,1,1,0,0,0,.36-.78V111.75H415.35v19.62h-2.3V110.62a1.07,1.07,0,0,1,.34-.81,1.14,1.14,0,0,1,.82-.33Zm-9.31,4c0,.06-.09.3-.2.72s-.26,1-.44,1.66-.43,1.48-.72,2.4-.62,1.9-1,2.95l2.06,6.45-2.15.69-1.19-3.7c-.28.69-.57,1.39-.87,2.07s-.62,1.38-.95,2.08l-2-1c.54-1.11,1-2.23,1.48-3.36s.87-2.22,1.27-3.3l-2.45-7.61,2.18-.69,1.5,4.66c.41-1.35.74-2.45,1-3.28s.34-1.27.34-1.29Zm4.95,14.87-1.16-3.67c-.28.67-.57,1.36-.87,2s-.61,1.38-.95,2.08l-2.06-1c.54-1.11,1-2.23,1.49-3.34s.88-2.21,1.26-3.29l-2.42-7.64,2.15-.69,1.49,4.69c.44-1.35.77-2.45,1-3.3s.33-1.28.33-1.3l2.24.54c0,.06-.08.3-.19.72s-.26,1-.45,1.66-.43,1.49-.72,2.41-.62,1.92-1,3l2.06,6.42Z"/><path d="M449.41,130.59q.24-1.38.42-3c.12-1.11.22-2.21.3-3.32s.14-2.17.18-3.2.07-2,.1-2.75,0-1.44.06-1.93,0-.74,0-.76l2.27,0c0,.06,0,.35,0,.87s0,1.18-.06,2-.07,1.74-.12,2.79-.11,2.12-.19,3.22-.18,2.22-.3,3.33-.26,2.15-.42,3.11Zm6.75-7.08-.75-2.62v11.22h-2.27V114.5h-3.07v-2.27h3.07v-3.08h2.27v3.08h2.24v2.27h-2.24v1l.78-.21,2.15,7.59Zm17,8.69a19.19,19.19,0,0,1-4.32-1.75,20.82,20.82,0,0,1-3.3-2.28,20,20,0,0,1-3.3,2.28A19.1,19.1,0,0,1,458,132.2l-.63-2.18a16.58,16.58,0,0,0,3.73-1.51,18.69,18.69,0,0,0,2.87-1.95,17.47,17.47,0,0,1-1.88-2.45,18.86,18.86,0,0,1-1.19-2.15,11.11,11.11,0,0,1-.63-1.58l-.21-.72,2.21-.54a3.5,3.5,0,0,0,.16.62,10.61,10.61,0,0,0,.56,1.33,18.94,18.94,0,0,0,1,1.82,16.65,16.65,0,0,0,1.58,2.09,15.5,15.5,0,0,0,1.65-2.12,17.72,17.72,0,0,0,1-1.87c.24-.55.42-1,.53-1.33s.17-.52.17-.54l2.21.54-.21.72a11.11,11.11,0,0,1-.63,1.58,24,24,0,0,1-1.19,2.17,18.32,18.32,0,0,1-1.88,2.46,18.33,18.33,0,0,0,2.86,1.94A17.48,17.48,0,0,0,473.8,130Zm-9.08-18a5.52,5.52,0,0,0-.27.54A8.49,8.49,0,0,1,463,116a13.37,13.37,0,0,1-1.56,1.69,13.88,13.88,0,0,1-2.47,1.82l-1.17-2a10.66,10.66,0,0,0,2-1.45,12.09,12.09,0,0,0,1.25-1.32,6.73,6.73,0,0,0,.84-1.35Zm9-1H458.55v-2.27h6l-.54-1.31,2.12-.86.9,2.17h6.09Zm-3.53.27a6.73,6.73,0,0,0,.84,1.35,12.5,12.5,0,0,0,1.27,1.32,11.89,11.89,0,0,0,2,1.45l-1.16,2a12.75,12.75,0,0,1-2.49-1.82,15.06,15.06,0,0,1-1.56-1.69,8.1,8.1,0,0,1-.82-1.26,5.7,5.7,0,0,1-.24-.54Z"/></g></g></svg>